<svg width="64" height="72" viewBox="0 0 64 72" fill="none" xmlns="http://www.w3.org/2000/svg">
<path d="M38.0578 37.421C46.8338 37.421 53.948 30.2889 53.948 21.491C53.948 12.6932 46.8338 5.56104 38.0578 5.56104C29.2819 5.56104 22.1675 12.6932 22.1675 21.491C22.1675 30.2889 29.2819 37.421 38.0578 37.421Z" fill="#D4E1EE"/>
<path d="M10.0968 71.119C10.0968 71.119 16.3612 46.1519 37.2935 46.1519C58.2259 46.1519 62.504 71.119 62.504 71.119H10.0968Z" fill="#D4E1EE"/>
<path d="M0.439804 65.4405C0.264452 65.9642 0.546851 66.5309 1.07056 66.7063C1.59427 66.8816 2.16097 66.5992 2.33632 66.0755L0.439804 65.4405ZM61.5284 65.9759C61.6487 66.5149 62.1832 66.8543 62.7223 66.734C63.2613 66.6137 63.6007 66.0792 63.4804 65.5401L61.5284 65.9759ZM48.5171 18.1213C48.5171 26.9614 41.3693 34.1235 32.5573 34.1235V36.1235C42.4785 36.1235 50.5171 28.0613 50.5171 18.1213H48.5171ZM32.5573 34.1235C23.7453 34.1235 16.5975 26.9614 16.5975 18.1213H14.5975C14.5975 28.0613 22.636 36.1235 32.5573 36.1235V34.1235ZM16.5975 18.1213C16.5975 9.28119 23.7453 2.11908 32.5573 2.11908V0.11908C22.636 0.11908 14.5975 8.18135 14.5975 18.1213H16.5975ZM32.5573 2.11908C41.3693 2.11908 48.5171 9.2812 48.5171 18.1213H50.5171C50.5171 8.18134 42.4785 0.11908 32.5573 0.11908V2.11908ZM1.38806 65.758C2.33632 66.0755 2.33619 66.0759 2.33609 66.0762C2.33609 66.0762 2.33602 66.0764 2.33603 66.0764C2.33604 66.0763 2.33617 66.076 2.33641 66.0752C2.33688 66.0739 2.3378 66.0711 2.33918 66.0671C2.34192 66.0592 2.34647 66.046 2.35287 66.0279C2.36566 65.9916 2.38582 65.9355 2.41363 65.8607C2.46928 65.7111 2.55552 65.4873 2.67471 65.1998C2.91316 64.6246 3.28302 63.7956 3.80288 62.7975C4.84356 60.7994 6.4796 58.1346 8.85678 55.4722C13.598 50.1622 21.2871 44.8543 33.1685 44.8543V42.8543C20.6034 42.8543 12.4023 48.4983 7.36492 54.1401C4.8528 56.9537 3.12744 59.7647 2.02906 61.8736C1.47938 62.929 1.08529 63.8112 0.827168 64.4339C0.698073 64.7453 0.602879 64.992 0.539152 65.1633C0.507286 65.249 0.483277 65.3158 0.466822 65.3624C0.458595 65.3858 0.452255 65.404 0.447765 65.4171C0.44552 65.4236 0.443737 65.4289 0.442412 65.4328C0.441749 65.4347 0.441201 65.4363 0.440766 65.4376C0.440549 65.4383 0.440308 65.439 0.4402 65.4393C0.439988 65.4399 0.439804 65.4405 1.38806 65.758ZM33.1685 44.8543C45.0391 44.8543 52.0978 50.1507 56.2159 55.4218C58.2854 58.0707 59.6183 60.7235 60.433 62.7143C60.8398 63.7085 61.1161 64.5342 61.2895 65.1068C61.3762 65.3929 61.4371 65.6156 61.4758 65.764C61.4951 65.8382 61.5089 65.8939 61.5175 65.9297C61.5218 65.9475 61.5248 65.9604 61.5266 65.9682C61.5275 65.9721 61.5281 65.9747 61.5284 65.9759C61.5286 65.9766 61.5287 65.9769 61.5286 65.9769C61.5286 65.9769 61.5286 65.9766 61.5286 65.9766C61.5285 65.9763 61.5284 65.9759 62.5044 65.758C63.4804 65.5401 63.4802 65.5396 63.4801 65.5389C63.48 65.5385 63.4798 65.5378 63.4797 65.5371C63.4794 65.5358 63.479 65.5341 63.4786 65.5321C63.4776 65.5281 63.4764 65.5227 63.4749 65.5161C63.4718 65.5028 63.4674 65.4842 63.4617 65.4607C63.4504 65.4135 63.4337 65.3462 63.4112 65.26C63.3663 65.0876 63.2984 64.8396 63.2036 64.5269C63.0142 63.9016 62.7174 63.016 62.284 61.9568C61.418 59.8407 60.0006 57.0175 57.7919 54.1905C53.3537 48.5097 45.7445 42.8543 33.1685 42.8543V44.8543Z" fill="#4C5263"/>
</svg>
