<svg width="63" height="62" viewBox="0 0 63 62" fill="none" xmlns="http://www.w3.org/2000/svg">
  <path d="M34.3971 61.7579C49.6596 61.7579 62.0324 49.7729 62.0324 34.9886C62.0324 20.2044 49.6596 8.21936 34.3971 8.21936C19.1345 8.21936 6.76172 20.2044 6.76172 34.9886C6.76172 49.7729 19.1345 61.7579 34.3971 61.7579Z" fill="#D4E1EE"/>
  <path d="M29.315 55.2965C44.5775 55.2965 56.9503 43.3114 56.9503 28.5272C56.9503 13.7429 44.5775 1.75793 29.315 1.75793C14.0524 1.75793 1.67969 13.7429 1.67969 28.5272C1.67969 43.3114 14.0524 55.2965 29.315 55.2965Z" stroke="#495368" stroke-width="2" stroke-miterlimit="10" stroke-linecap="round" stroke-linejoin="round"/>
  <path d="M28.5939 29.6129C27.5525 29.3475 26.5378 29.0338 25.5499 28.6719C24.5886 28.2858 23.7341 27.8153 22.9865 27.2603C22.2655 26.6812 21.6781 25.9936 21.2242 25.1973C20.7702 24.401 20.5433 23.4359 20.5433 22.3018C20.5433 21.2401 20.7569 20.287 21.1841 19.4425C21.638 18.598 22.2255 17.8862 22.9464 17.3071C23.6941 16.7039 24.5485 16.2334 25.5098 15.8955C26.4978 15.5336 27.5258 15.3285 28.5939 15.2803V12.7467H30.6366V15.2441C32.0251 15.2682 33.4269 15.5095 34.8421 15.9679C36.284 16.4023 37.5123 17.0779 38.527 17.9948L35.8034 20.275C35.1892 19.5752 34.4015 19.0444 33.4403 18.6825C32.5057 18.3205 31.5711 18.1275 30.6366 18.1034V26.7174C31.6512 27.0311 32.6526 27.381 33.6405 27.7671C34.6552 28.1531 35.5497 28.6478 36.3241 29.251C37.1251 29.8301 37.766 30.5419 38.2466 31.3864C38.7272 32.2309 38.9675 33.2444 38.9675 34.4267C38.9675 35.5607 38.7406 36.5742 38.2866 37.4669C37.8594 38.3597 37.2586 39.1198 36.4843 39.7471C35.7366 40.3745 34.8555 40.8571 33.8408 41.1949C32.8261 41.5086 31.758 41.6775 30.6366 41.7016V44.3075H28.5939V41.7016C26.8049 41.6533 25.1493 41.3276 23.6273 40.7244C22.1053 40.097 20.7836 39.2284 19.6621 38.1184L22.586 35.8744C22.9331 36.3329 23.3603 36.7431 23.8677 37.105C24.375 37.4669 24.8957 37.7806 25.4297 38.046C25.9637 38.2873 26.4978 38.4804 27.0318 38.6251C27.5926 38.7458 28.1132 38.8061 28.5939 38.8061V29.6129ZM30.6366 38.8061C31.224 38.782 31.7847 38.6734 32.3188 38.4804C32.8528 38.2873 33.3201 38.0219 33.7206 37.6841C34.1479 37.3222 34.4816 36.8758 34.722 36.3449C34.989 35.8141 35.1225 35.1867 35.1225 34.4629C35.1225 33.3047 34.6952 32.3878 33.8408 31.7122C32.9863 31.0365 31.9183 30.5057 30.6366 30.1196V38.8061ZM28.5939 18.1034C27.419 18.1757 26.4177 18.5618 25.5899 19.2616C24.7622 19.9372 24.3483 20.8782 24.3483 22.0847C24.3483 23.2429 24.7355 24.1356 25.5098 24.763C26.3109 25.3662 27.3389 25.8367 28.5939 26.1745V18.1034Z" fill="#495368" stroke="#495368" stroke-width="0.5" stroke-linejoin="round"/>
</svg>
